<svg xmlns="http://www.w3.org/2000/svg" xmlns:xlink="http://www.w3.org/1999/xlink" width="500" zoomAndPan="magnify" viewBox="0 0 375 374.999991" height="500" preserveAspectRatio="xMidYMid meet" version="1.0"><defs><clipPath id="27f398062f"><path d="M 3.222656 20 L 371 20 L 371 355.640625 L 3.222656 355.640625 Z M 3.222656 20 " clip-rule="nonzero"/></clipPath></defs><g clip-path="url(#27f398062f)"><path fill="#ffffff" d="M 368.796875 198.617188 C 368.664062 198.484375 327.863281 157.675781 322.359375 152.167969 L 322.359375 68.71875 C 322.359375 64.566406 318.992188 61.199219 314.835938 61.199219 L 277.597656 61.199219 C 273.441406 61.199219 270.078125 64.566406 270.078125 68.71875 L 270.078125 99.882812 L 192.820312 22.617188 C 189.851562 19.652344 185.078125 19.714844 182.171875 22.628906 C 176.894531 27.929688 15.90625 189.617188 6.183594 199.378906 C 3.253906 202.324219 3.261719 207.085938 6.207031 210.015625 C 9.148438 212.945312 13.910156 212.9375 16.839844 209.992188 L 36.074219 190.679688 L 36.074219 347.804688 C 36.074219 351.957031 39.441406 355.324219 43.59375 355.324219 L 147.34375 355.324219 C 151.496094 355.324219 154.863281 351.957031 154.863281 347.804688 L 154.863281 233.84375 L 220.125 233.84375 L 220.125 347.804688 C 220.125 351.957031 223.492188 355.324219 227.644531 355.324219 L 331.394531 355.324219 C 335.550781 355.324219 338.917969 351.957031 338.917969 347.804688 L 338.917969 190.003906 L 358.160156 209.25 C 361.097656 212.1875 365.855469 212.1875 368.796875 209.253906 C 371.730469 206.316406 371.730469 201.554688 368.796875 198.617188 Z M 235.167969 340.285156 L 235.167969 226.320312 C 235.167969 222.167969 231.800781 218.800781 227.644531 218.800781 L 147.34375 218.800781 C 143.191406 218.800781 139.824219 222.167969 139.824219 226.320312 L 139.824219 340.285156 L 51.113281 340.285156 L 51.113281 175.566406 L 187.511719 38.582031 L 323.875 174.960938 L 323.875 340.285156 Z M 235.167969 340.285156 " fill-opacity="1" fill-rule="nonzero"/></g></svg>